<svg width="48" height="48" viewBox="0 0 48 48" fill="none" xmlns="http://www.w3.org/2000/svg">
<rect width="48" height="48" fill="url(#paint0_linear_281_8450)"/>
<g clip-path="url(#clip0_281_8450)">
<path d="M21.5683 20.0317C23.5797 19.9332 24.4461 21.5195 24.3547 23.4684C24.3376 23.8314 24.3532 24.2601 24.3532 24.6298L24.3521 28.085C23.7975 28.1038 23.2037 28.092 22.6472 28.0909L22.6485 24.7794C22.6487 24.0614 22.727 23.0064 22.4542 22.3587C22.0705 21.4474 20.8342 21.4016 20.1866 22.0332C20.1717 22.0488 20.1569 22.0645 20.1421 22.0803C19.4553 22.8181 19.627 24.0185 19.5994 24.9738C19.5953 25.1144 19.5996 25.2614 19.5997 25.4025L19.6009 28.0871C19.0369 28.0923 18.4728 28.0932 17.9088 28.0899C17.9212 25.4745 17.9151 22.8592 17.8906 20.244C18.4256 20.2558 18.983 20.25 19.5198 20.2524L19.5235 21.3052C20.1242 20.4955 20.5542 20.1173 21.5683 20.0317Z" fill="#111111"/>
<path d="M29.2919 20.0336C30.6311 19.945 31.7406 20.7989 31.9679 22.2258C32.0989 23.0483 32.061 23.825 32.0608 24.654L32.059 28.0901C31.4906 28.096 30.9221 28.0979 30.3537 28.096L30.3539 24.7556C30.3539 24.0461 30.4218 23.0742 30.1861 22.4205C29.8335 21.4428 28.5487 21.3904 27.885 22.0449C27.8697 22.0607 27.8544 22.0767 27.8392 22.0929C27.3143 22.6598 27.3075 23.5193 27.3059 24.2696C27.3051 24.6929 27.3062 25.116 27.3066 25.5391L27.3068 28.0889C26.761 28.1056 26.1692 28.0941 25.6199 28.0934L25.6206 23.3841C25.6267 22.3389 25.6217 21.2936 25.6055 20.2485L27.2319 20.2538L27.2361 21.2978C27.3408 21.1701 27.4403 21.0226 27.5463 20.892C27.9902 20.3453 28.6309 20.0848 29.2919 20.0336Z" fill="#111111"/>
<path d="M32.4219 20.2478C33.011 20.2599 33.6004 20.2625 34.1896 20.2554C34.302 20.5378 34.428 20.9535 34.5264 21.2495L35.1337 23.0739L35.6105 24.5032C35.7398 24.88 35.9024 25.3085 36.0014 25.6905C36.5294 23.8931 37.244 22.0539 37.7737 20.2461C38.1462 20.2874 39.1346 20.256 39.5408 20.2535C39.2626 21.0834 38.9464 21.9252 38.6445 22.7469C38.256 23.8036 37.8837 24.8894 37.4891 25.9405C37.2549 26.5528 37.0481 27.1973 36.8158 27.8114C36.4828 28.6914 36.1605 29.9786 35.5135 30.6348C34.841 31.3171 33.8945 31.2363 33.0417 31.195C33.0617 30.7036 33.05 30.1428 33.0505 29.6467C34.6925 29.8775 34.6379 29.1825 35.1537 27.8131C35.0056 27.472 34.8272 26.9296 34.6953 26.561L33.9887 24.6037C33.4795 23.1826 32.8967 21.669 32.4219 20.2478Z" fill="#111111"/>
<path d="M12.2438 16.9834C12.5745 16.93 13.1557 17.0036 13.4912 17.0571C13.5025 17.5437 13.4926 18.0833 13.4926 18.5735C13.0181 18.4803 12.3721 18.3714 11.997 18.7807C11.6767 19.1302 11.7207 19.7954 11.7282 20.2505C12.2779 20.2644 12.8688 20.2539 13.422 20.2543L13.4211 21.7164C12.8642 21.7269 12.2901 21.7205 11.7319 21.7211C11.7048 22.4463 11.7208 23.2471 11.7216 23.9789L11.7236 27.9412C11.7251 28.0067 11.7275 28.0037 11.7056 28.064C11.5428 28.1112 10.2754 28.0809 10.0186 28.0807L10.0136 21.7229C9.63601 21.7078 9.18292 21.721 8.79942 21.7212L8.79688 20.2502L10.0108 20.2504C10.06 19.3645 9.92518 18.6073 10.5064 17.834C10.9619 17.2278 11.5535 17.0639 12.2438 16.9834Z" fill="#111111"/>
<path d="M14.8304 20.2461C15.3344 20.2685 15.9583 20.2516 16.4715 20.2528C16.4888 21.06 16.4754 21.9274 16.4765 22.7383L16.4808 27.6606L16.4757 28.0724C15.9029 28.0806 15.3302 28.0825 14.7574 28.0783L14.7602 21.7898C14.7609 21.5677 14.7373 20.384 14.7771 20.2631L14.8304 20.2461Z" fill="#111111"/>
<path d="M15.3932 16.9434C15.9606 16.8124 16.5192 17.2009 16.6384 17.8096C16.7577 18.4182 16.3922 19.0147 15.8235 19.1394C15.2591 19.2631 14.7074 18.8749 14.589 18.2707C14.4706 17.6666 14.8299 17.0734 15.3932 16.9434Z" fill="#111111"/>
</g>
<defs>
<linearGradient id="paint0_linear_281_8450" x1="24" y1="0" x2="24" y2="48" gradientUnits="userSpaceOnUse">
<stop stop-color="#E6F3FF"/>
<stop offset="1" stop-color="#63B0F2"/>
</linearGradient>
<clipPath id="clip0_281_8450">
<rect width="32" height="15.5429" fill="white" transform="translate(8 16)"/>
</clipPath>
</defs>
</svg>
